<?xml version="1.0" encoding="UTF-8"?>
<svg xmlns="http://www.w3.org/2000/svg" style="display: none;">
  <symbol id="whatsapp-icon" viewBox="0 0 24 24">
    <path fill="currentColor" d="M12 0C5.373 0 0 5.373 0 12c0 2.116.548 4.106 1.502 5.84L0 24l6.335-1.668A11.937 0 0012 24c6.627 0 12-5.373 12-12S18.627 0 12 0zm6.462 17.143c-.287.81-.81 1.478-1.668 1.764-.955.318-2.21.096-3.99-.955-1.78-1.05-3.082-2.497-3.99-4.235-.908-1.738-.908-3.176-.287-4.235.62-1.05 1.478-1.478 2.497-1.478.382 0 .764.096.955.287.287.287.62.573.955 1.05.382.573.477 1.05.287 1.478-.191.382-.477.764-.955 1.05-.477.287-1.05.573-1.05 1.05 0 .573.477 1.05 1.05 1.478.573.382 1.243.764 1.91 1.05.668.287 1.338.382 1.91.096.573-.287 1.05-.764 1.478-1.338.382-.573.764-.668 1.05-.477.287.191.573.477 1.05.955.477.477.573 1.05.287 1.91z"/>
  </symbol>
  <symbol id="instagram-icon" viewBox="0 0 24 24">
    <path fill="currentColor" d="M12 2c5.514 0 10 4.486 10 10s-4.486 10-10 10-10-4.486-10-10S6.486 2 12 2zm0-2C5.373 0 0 5.373 0 12s5.373 12 12 12 12-5.373 12-12S18.627 0 12 0zm0 4c-4.418 0-8 3.582-8 8s3.582 8 8 8 8-3.582 8-8-3.582-8-8-8zm0 2c3.314 0 6 2.686 6 6s-2.686 6-6 6-6-2.686-6-6 2.686-6 6-6zm2.5 1.5v3h1v2h-1v3h-2v-3h-1v-2h1v-3h2z"/>
  </symbol>
  <symbol id="facebook-icon" viewBox="0 0 24 24">
    <path fill="currentColor" d="M12 2c5.514 0 10 4.486 10 10s-4.486 10-10 10-10-4.486-10-10S6.486 2 12 2zm0-2C5.373 0 0 5.373 0 12s5.373 12 12 12 12-5.373 12-12S18.627 0 12 0zm1 4.5h-2v4H8v2h3v4h2v-4h3v-2h-3v-4z"/>
  </symbol>
</svg>